<?xml version="1.0" encoding="UTF-8" standalone="no"?>
<svg
   xmlns:dc="http://purl.org/dc/elements/1.1/"
   xmlns:cc="http://creativecommons.org/ns#"
   xmlns:rdf="http://www.w3.org/1999/02/22-rdf-syntax-ns#"
   xmlns:svg="http://www.w3.org/2000/svg"
   xmlns="http://www.w3.org/2000/svg"
   xmlns:sodipodi="http://sodipodi.sourceforge.net/DTD/sodipodi-0.dtd"
   xmlns:inkscape="http://www.inkscape.org/namespaces/inkscape"
   version="1.1"
   x="0px"
   y="0px"
   viewBox="0 0 20.711999 25.028999"
   enable-background="new 0 0 51.02 45.35"
   xml:space="preserve"
   id="svg2"
   inkscape:version="0.48.4 r9939"
   width="100%"
   height="100%"
   sodipodi:docname="TIP_1.svg"><metadata
     id="metadata60"><rdf:RDF><cc:Work
         rdf:about=""><dc:format>image/svg+xml</dc:format><dc:type
           rdf:resource="http://purl.org/dc/dcmitype/StillImage" /></cc:Work></rdf:RDF></metadata><defs
     id="defs58" /><sodipodi:namedview
     pagecolor="#ffffff"
     bordercolor="#666666"
     borderopacity="1"
     objecttolerance="10"
     gridtolerance="10"
     guidetolerance="10"
     inkscape:pageopacity="0"
     inkscape:pageshadow="2"
     inkscape:window-width="640"
     inkscape:window-height="480"
     id="namedview56"
     showgrid="false"
     fit-margin-top="0"
     fit-margin-left="0"
     fit-margin-right="0"
     fit-margin-bottom="0"
     inkscape:zoom="5.2039691"
     inkscape:cx="13.030999"
     inkscape:cy="14.780999"
     inkscape:window-x="189"
     inkscape:window-y="43"
     inkscape:window-maximized="0"
     inkscape:current-layer="svg2" /><g
     id="g4"
     transform="translate(-12.479001,-12.427)"><g
       id="g6"><path
         d="m 32.191,13.427 v 3.141 h -18.71 v -3.141 h 18.71 m 1,-1 h -20.71 v 5.141 h 20.71 v -5.141 l 0,0 z"
         id="path8"
         inkscape:connector-curvature="0" /></g></g><g
     id="g10"
     transform="translate(-12.479001,-12.427)"><g
       id="g12"><path
         d="M 32.188,18.025 V 36.456 H 13.479 V 18.025 h 18.709 m 1,-1 H 12.479 V 37.456 H 33.188 V 17.025 l 0,0 z"
         id="path14"
         inkscape:connector-curvature="0" /></g></g><g
     id="g16"
     transform="translate(-12.479001,-12.427)"><circle
       cx="24.57"
       cy="15.031"
       r="0.78100002"
       id="circle18"
       sodipodi:cx="24.57"
       sodipodi:cy="15.031"
       sodipodi:rx="0.78100002"
       sodipodi:ry="0.78100002"
       d="m 25.351,15.031 c 0,0.431335 -0.349666,0.781 -0.781,0.781 -0.431335,0 -0.781,-0.349665 -0.781,-0.781 0,-0.431334 0.349665,-0.781 0.781,-0.781 0.431334,0 0.781,0.349666 0.781,0.781 z" /></g><g
     id="g20"
     transform="translate(-12.479001,-12.427)"><circle
       cx="27.405001"
       cy="15.031"
       r="0.78100002"
       id="circle22"
       sodipodi:cx="27.405001"
       sodipodi:cy="15.031"
       sodipodi:rx="0.78100002"
       sodipodi:ry="0.78100002"
       d="m 28.186001,15.031 c 0,0.431335 -0.349666,0.781 -0.781,0.781 -0.431335,0 -0.781,-0.349665 -0.781,-0.781 0,-0.431334 0.349665,-0.781 0.781,-0.781 0.431334,0 0.781,0.349666 0.781,0.781 z" /></g><g
     id="g24"
     transform="translate(-12.479001,-12.427)"><circle
       cx="21.709999"
       cy="15.031"
       r="0.78100002"
       id="circle26"
       sodipodi:cx="21.709999"
       sodipodi:cy="15.031"
       sodipodi:rx="0.78100002"
       sodipodi:ry="0.78100002"
       d="m 22.490999,15.031 c 0,0.431335 -0.349666,0.781 -0.781,0.781 -0.431334,0 -0.781,-0.349665 -0.781,-0.781 0,-0.431334 0.349666,-0.781 0.781,-0.781 0.431334,0 0.781,0.349666 0.781,0.781 z" /></g><g
     id="g28"
     transform="translate(-12.479001,-12.427)"><circle
       cx="24.545"
       cy="15.031"
       r="0.78100002"
       id="circle30"
       sodipodi:cx="24.545"
       sodipodi:cy="15.031"
       sodipodi:rx="0.78100002"
       sodipodi:ry="0.78100002"
       d="m 25.326,15.031 c 0,0.431335 -0.349666,0.781 -0.781,0.781 -0.431334,0 -0.781,-0.349665 -0.781,-0.781 0,-0.431334 0.349666,-0.781 0.781,-0.781 0.431334,0 0.781,0.349666 0.781,0.781 z" /></g><g
     id="g32"
     transform="translate(-12.479001,-12.427)"><circle
       cx="18.198"
       cy="15.031"
       r="0.78100002"
       id="circle34"
       sodipodi:cx="18.198"
       sodipodi:cy="15.031"
       sodipodi:rx="0.78100002"
       sodipodi:ry="0.78100002"
       d="m 18.979,15.031 c 0,0.431335 -0.349666,0.781 -0.781,0.781 -0.431334,0 -0.781,-0.349665 -0.781,-0.781 0,-0.431334 0.349666,-0.781 0.781,-0.781 0.431334,0 0.781,0.349666 0.781,0.781 z" /></g><g
     id="g36"
     transform="translate(-12.479001,-12.427)"><g
       id="g38"><path
         d="m 15.678,14.5 c 0.293,0 0.531,0.236 0.531,0.529 0,0.293 -0.238,0.531 -0.531,0.531 -0.293,0 -0.531,-0.238 -0.531,-0.531 0,-0.293 0.238,-0.529 0.531,-0.529 m 0,-0.25 c -0.432,0 -0.781,0.35 -0.781,0.779 0,0.433 0.352,0.781 0.781,0.781 0.429,0 0.781,-0.35 0.781,-0.781 0,-0.429 -0.35,-0.779 -0.781,-0.779 l 0,0 z"
         id="path40"
         inkscape:connector-curvature="0" /></g></g><g
     id="g42"
     transform="translate(-12.479001,-12.427)"><circle
       cx="30.24"
       cy="15.031"
       r="0.78100002"
       id="circle44"
       sodipodi:cx="30.24"
       sodipodi:cy="15.031"
       sodipodi:rx="0.78100002"
       sodipodi:ry="0.78100002"
       d="m 31.021,15.031 c 0,0.431335 -0.349666,0.781 -0.781,0.781 -0.431335,0 -0.781,-0.349665 -0.781,-0.781 0,-0.431334 0.349665,-0.781 0.781,-0.781 0.431334,0 0.781,0.349666 0.781,0.781 z" /></g><g
     id="g46"
     transform="translate(-12.479001,-12.427)"><path
       d="M 30.625,34.125 H 15 V 23 H 30.625 V 34.125 z M 16,33.125 H 29.625 V 24 H 16 v 9.125 z"
       id="path48"
       inkscape:connector-curvature="0" /></g><g
     id="g50"
     transform="translate(-12.479001,-12.427)"><rect
       x="15.5"
       y="19.625"
       width="14.75"
       height="1.75"
       id="rect52"
       style="fill:#000000" /><path
       d="M 30.75,21.875 H 15 v -2.75 h 15.75 v 2.75 z m -14.75,-1 h 13.75 v -0.75 H 16 v 0.75 z"
       id="path54"
       inkscape:connector-curvature="0" /></g></svg>