<?xml version="1.0" encoding="UTF-8" standalone="no"?>
<svg
   xmlns:ns="http://ns.adobe.com/SaveForWeb/1.0/"
   xmlns:dc="http://purl.org/dc/elements/1.1/"
   xmlns:cc="http://creativecommons.org/ns#"
   xmlns:rdf="http://www.w3.org/1999/02/22-rdf-syntax-ns#"
   xmlns:svg="http://www.w3.org/2000/svg"
   xmlns="http://www.w3.org/2000/svg"
   xmlns:sodipodi="http://sodipodi.sourceforge.net/DTD/sodipodi-0.dtd"
   xmlns:inkscape="http://www.inkscape.org/namespaces/inkscape"
   version="1.1"
   x="0px"
   y="0px"
   viewBox="0 0 39.999999 55.652999"
   enable-background="new 0 0 100 100"
   xml:space="preserve"
   id="svg2"
   inkscape:version="0.48.4 r9939"
   width="100%"
   height="100%"
   sodipodi:docname="TIP_3.svg"><defs
     id="defs274" /><sodipodi:namedview
     pagecolor="#ffffff"
     bordercolor="#666666"
     borderopacity="1"
     objecttolerance="10"
     gridtolerance="10"
     guidetolerance="10"
     inkscape:pageopacity="0"
     inkscape:pageshadow="2"
     inkscape:window-width="1565"
     inkscape:window-height="769"
     id="namedview272"
     showgrid="false"
     fit-margin-top="0"
     fit-margin-left="0"
     fit-margin-right="0"
     fit-margin-bottom="0"
     inkscape:zoom="2.36"
     inkscape:cx="-200.50848"
     inkscape:cy="62.226307"
     inkscape:window-x="59"
     inkscape:window-y="34"
     inkscape:window-maximized="0"
     inkscape:current-layer="svg2" /><metadata
     id="metadata4"><ns:sfw><ns:slices /><ns:sliceSourceBounds
         y="265.235"
         x="-394.5"
         width="829"
         height="259.265"
         bottomLeftOrigin="true" /></ns:sfw><rdf:RDF><cc:Work
         rdf:about=""><dc:format>image/svg+xml</dc:format><dc:type
           rdf:resource="http://purl.org/dc/dcmitype/StillImage" /></cc:Work></rdf:RDF></metadata><g
     display="none"
     id="g6"
     style="display:none"
     transform="translate(-30.5,-22.675002)"><rect
       x="-744"
       y="-138"
       display="inline"
       width="185"
       height="99"
       id="rect8"
       style="display:inline" /><rect
       x="-552"
       y="-174"
       display="inline"
       width="100"
       height="30"
       id="rect10"
       style="display:inline" /><text
       transform="translate(-486,-157.5)"
       display="inline"
       font-size="2.4"
       id="text12"
       style="font-size:2.4000001px;fill:#000000;display:inline;font-family:Helvetica">http://thenounproject.com</text>
<text
       transform="translate(-544.834,-162.5)"
       display="inline"
       font-size="6.1578"
       id="text14"
       style="font-size:6.1578002px;fill:#000000;display:inline;font-family:Helvetica-Bold">The Noun Project</text>
<text
       transform="translate(-543.7148,-157.7002)"
       display="inline"
       font-size="4"
       id="text16"
       style="font-size:4px;fill:#000000;display:inline;font-family:Helvetica-Bold">Icon Template</text>
<text
       transform="translate(-730.5,-127.5)"
       display="inline"
       font-size="6.1578"
       id="text18"
       style="font-size:6.1578002px;fill:#000000;display:inline;font-family:Helvetica-Bold">Reminders</text>
<line
       display="inline"
       stroke-miterlimit="10"
       x1="-544"
       y1="-152.5"
       x2="-534"
       y2="-152.5"
       id="line20"
       style="fill:#000000;stroke:#ffffff;stroke-miterlimit:10;display:inline" /><line
       display="inline"
       stroke-miterlimit="10"
       x1="-731"
       y1="-121.5"
       x2="-714"
       y2="-121.5"
       id="line22"
       style="fill:#000000;stroke:#ffffff;stroke-miterlimit:10;display:inline" /><g
       display="inline"
       id="g24"
       style="display:inline"><g
         id="g26"><g
           id="g28"><rect
             x="-722.802"
             y="-106.682"
             width="8.7209997"
             height="8.6420002"
             id="rect30"
             style="fill:#000000" /><path
             d="m -716.455,-95.688 h 4.747 v -4.703 h -4.747 v 4.703 z m 5.189,0.437 h -5.63 v -5.579 h 5.63 v 5.579 l 0,0 z m -6.955,1.313 h 8.279 v -8.203 h -8.279 v 8.203 l 0,0 z m 8.721,0.438 h -9.163 v -9.079 h 9.163 v 9.079 l 0,0 z"
             id="path32"
             inkscape:connector-curvature="0"
             style="fill:#000000" /><polygon
             points="-718.292,-94.009 -710.013,-102.213 -709.871,-102.071 -718.149,-93.867 "
             id="polygon34"
             style="fill:#000000" /></g></g></g><rect
       x="-731"
       y="-80"
       display="inline"
       width="35"
       height="32.5"
       id="rect36"
       style="fill:none;display:inline" /><text
       transform="translate(-731,-77.8428)"
       display="inline"
       font-size="3"
       id="text38"
       style="font-size:3px;fill:#000000;display:inline;font-family:Helvetica-Bold">Strokes</text>
<text
       transform="translate(-731,-72.8428)"
       display="inline"
       font-size="2.4"
       id="text40"
       style="font-size:2.4000001px;fill:#000000;display:inline;font-family:Helvetica">Try to keep strokes at 4px</text>
<text
       transform="translate(-731,-67.8428)"
       display="inline"
       font-size="2.4"
       id="text42"
       style="font-size:2.4000001px;fill:#000000;display:inline;font-family:Helvetica">Minimum stroke weight is 2px</text>
<text
       transform="translate(-731,-63.3428)"
       display="inline"
       font-size="2.4"
       id="text44"
       style="font-size:2.4000001px;fill:#000000;display:inline;font-family:Helvetica">For thicker strokes use even </text>
<text
       transform="translate(-731,-60.3428)"
       display="inline"
       font-size="2.4"
       id="text46"
       style="font-size:2.4000001px;fill:#000000;display:inline;font-family:Helvetica">numbers: 6px, 8px etc.</text>
<text
       transform="translate(-731,-55.8428)"
       display="inline"
       font-size="2.4"
       id="text48"
       style="font-size:2.4000001px;fill:#000000;display:inline;font-family:Helvetica-Bold">Remember to expand strokes </text>
<text
       transform="translate(-731,-52.8428)"
       display="inline"
       font-size="2.4"
       id="text50"
       style="font-size:2.4000001px;fill:#000000;display:inline;font-family:Helvetica-Bold">before saving as an SVG </text>
<rect
       x="-688.5"
       y="-80"
       display="inline"
       width="35"
       height="32.5"
       id="rect52"
       style="fill:none;display:inline" /><text
       transform="translate(-688.5,-77.8428)"
       display="inline"
       font-size="3"
       id="text54"
       style="font-size:3px;fill:#000000;display:inline;font-family:Helvetica-Bold">Size</text>
<text
       transform="translate(-688.5,-72.8428)"
       display="inline"
       font-size="2.4"
       id="text56"
       style="font-size:2.4000001px;fill:#000000;display:inline;font-family:Helvetica">Cannot be wider or taller than </text>
<text
       transform="translate(-688.5,-69.3428)"
       display="inline"
       font-size="2.4"
       id="text58"
       style="font-size:2.4000001px;fill:#000000;display:inline;font-family:Helvetica">100px (artboar size)</text>
<text
       transform="translate(-688.5,-64.3428)"
       display="inline"
       font-size="2.4"
       id="text60"
       style="font-size:2.4000001px;fill:#000000;display:inline;font-family:Helvetica">Scale your icon to fill as much of </text>
<text
       transform="translate(-688.5,-61.3428)"
       display="inline"
       font-size="2.4"
       id="text62"
       style="font-size:2.4000001px;fill:#000000;display:inline;font-family:Helvetica">the Safe Area as possible (within </text>
<text
       transform="translate(-688.5,-58.3428)"
       display="inline"
       font-size="2.4"
       id="text64"
       style="font-size:2.4000001px;fill:#000000;display:inline;font-family:Helvetica">the guides)</text>
<rect
       x="-646"
       y="-80"
       display="inline"
       width="35"
       height="32.5"
       id="rect66"
       style="fill:none;display:inline" /><text
       transform="translate(-646,-77.8428)"
       display="inline"
       font-size="3"
       id="text68"
       style="font-size:3px;fill:#000000;display:inline;font-family:Helvetica-Bold">Ungroup</text>
<text
       transform="translate(-646,-72.8428)"
       display="inline"
       font-size="2.4"
       id="text70"
       style="font-size:2.4000001px;fill:#000000;display:inline;font-family:Helvetica">If your design has more than one </text>
<text
       transform="translate(-646,-69.8428)"
       display="inline"
       font-size="2.4"
       id="text72"
       style="font-size:2.4000001px;fill:#000000;display:inline;font-family:Helvetica">shape, make sure to ungroup.</text>
<rect
       x="-602"
       y="-80"
       display="inline"
       width="35"
       height="32.5"
       id="rect74"
       style="fill:none;display:inline" /><text
       transform="translate(-602,-77.8428)"
       display="inline"
       font-size="3"
       id="text76"
       style="font-size:3px;fill:#000000;display:inline;font-family:Helvetica-Bold">Save as</text>
<text
       transform="translate(-602,-72.8428)"
       display="inline"
       font-size="2.4"
       id="text78"
       style="font-size:2.4000001px;fill:#000000;display:inline;font-family:Helvetica">Save as .SVG and make sure </text>
<text
       transform="translate(-602,-69.8428)"
       display="inline"
       font-size="2.4"
       id="text80"
       style="font-size:2.4000001px;fill:#000000;display:inline;font-family:Helvetica">“Use Artboards” is checked.</text>
<text
       transform="matrix(1.0074,0,0,1,-677.542,-107.4062)"
       display="inline"
       font-size="2.5731"
       id="text82"
       style="font-size:2.57310009px;fill:#000000;display:inline;font-family:Helvetica">100px</text>
<text
       transform="matrix(1.0074,0,0,1,-592.999,-99)"
       display="inline"
       font-size="5.1462"
       id="text84"
       style="font-size:5.14620018px;fill:#000000;display:inline;font-family:Helvetica-Bold">.SVG</text>
<rect
       x="-678.51398"
       y="-103.185"
       display="inline"
       width="10.261"
       height="10.185"
       id="rect86"
       style="fill:#000000;display:inline" /><rect
       x="-678.47699"
       y="-106.234"
       display="inline"
       width="0.52200001"
       height="2.3369999"
       id="rect88"
       style="fill:#000000;display:inline" /><rect
       x="-668.81201"
       y="-106.234"
       display="inline"
       width="0.523"
       height="2.3369999"
       id="rect90"
       style="fill:#000000;display:inline" /><rect
       x="-679"
       y="-105.663"
       display="inline"
       width="11.233"
       height="0.57200003"
       id="rect92"
       style="fill:#000000;display:inline" /><g
       display="inline"
       id="g94"
       style="display:inline"><rect
         x="-635.80499"
         y="-104.156"
         width="10.305"
         height="10.156"
         id="rect96"
         style="fill:#000000" /><rect
         x="-628.80902"
         y="-109.293"
         width="3.3080001"
         height="3.2609999"
         id="rect98"
         style="fill:#000000" /></g><rect
       x="-730.5"
       y="-115.5"
       display="inline"
       stroke-miterlimit="10"
       width="30"
       height="30"
       id="rect100"
       style="fill:#000000;stroke:#ffffff;stroke-miterlimit:10;display:inline" /><rect
       x="-688.5"
       y="-115.5"
       display="inline"
       stroke-miterlimit="10"
       width="30"
       height="30"
       id="rect102"
       style="fill:#000000;stroke:#ffffff;stroke-miterlimit:10;display:inline" /><rect
       x="-645.5"
       y="-115.5"
       display="inline"
       stroke-miterlimit="10"
       width="30"
       height="30"
       id="rect104"
       style="fill:#000000;stroke:#ffffff;stroke-miterlimit:10;display:inline" /><rect
       x="-601.5"
       y="-115.5"
       display="inline"
       stroke-miterlimit="10"
       width="30"
       height="30"
       id="rect106"
       style="fill:#000000;stroke:#ffffff;stroke-miterlimit:10;display:inline" /></g><g
     id="g210"
     transform="translate(-30.5,-22.675002)"><g
       id="g212"><path
         d="m 69.62,27.247 c 0,-2.187 -8.614,-4.572 -19.245,-4.572 -10.628,0 -19.244,2.386 -19.244,4.572 0,2.183 8.616,0.543 19.244,0.543 10.631,0 19.245,1.639 19.245,-0.543 z"
         id="path214"
         inkscape:connector-curvature="0" /></g><g
       id="g216"><path
         d="m 33.5,71.5 v 2.062 c 0,0 7.793,3.588 16.461,3.588 8.666,0 16.539,-3.588 16.539,-3.588 V 71.5 h -33 z"
         id="path218"
         inkscape:connector-curvature="0" /></g><g
       id="g220"><path
         d="m 45.5,76.5 v 0.885 c 0,0 1.934,0.943 3.99,0.943 2.061,0 4.01,-0.943 4.01,-0.943 V 76.5 h -8 z"
         id="path222"
         inkscape:connector-curvature="0" /></g><g
       id="g224"><circle
         cx="50.375"
         cy="42.674"
         r="1.1390001"
         id="circle226"
         sodipodi:cx="50.375"
         sodipodi:cy="42.674"
         sodipodi:rx="1.1390001"
         sodipodi:ry="1.1390001"
         d="m 51.514,42.674 c 0,0.629052 -0.509948,1.139 -1.139,1.139 -0.629052,0 -1.139,-0.509948 -1.139,-1.139 0,-0.629053 0.509948,-1.139 1.139,-1.139 0.629052,0 1.139,0.509947 1.139,1.139 z" /></g><g
       id="g228"><polygon
         points="48.393,36.893 51.079,42.469 49.735,43.071 "
         id="polygon230" /></g><g
       id="g232"><circle
         cx="45.602001"
         cy="39.268002"
         r="0.396"
         id="circle234"
         sodipodi:cx="45.602001"
         sodipodi:cy="39.268002"
         sodipodi:rx="0.396"
         sodipodi:ry="0.396"
         d="m 45.998001,39.268002 c 0,0.218704 -0.177295,0.396 -0.396,0.396 -0.218705,0 -0.396,-0.177296 -0.396,-0.396 0,-0.218705 0.177295,-0.396 0.396,-0.396 0.218705,0 0.396,0.177295 0.396,0.396 z" /></g><g
       id="g236"><circle
         cx="46.055"
         cy="37.263"
         r="0.456"
         id="circle238"
         sodipodi:cx="46.055"
         sodipodi:cy="37.263"
         sodipodi:rx="0.456"
         sodipodi:ry="0.456"
         d="m 46.511,37.263 c 0,0.251842 -0.204158,0.456 -0.456,0.456 -0.251842,0 -0.456,-0.204158 -0.456,-0.456 0,-0.251841 0.204158,-0.456 0.456,-0.456 0.251842,0 0.456,0.204159 0.456,0.456 z" /></g><g
       id="g240"><circle
         cx="47.573002"
         cy="35.328999"
         r="0.59200001"
         id="circle242"
         sodipodi:cx="47.573002"
         sodipodi:cy="35.328999"
         sodipodi:rx="0.59200001"
         sodipodi:ry="0.59200001"
         d="m 48.165002,35.328999 c 0,0.326952 -0.265048,0.592 -0.592,0.592 -0.326953,0 -0.592,-0.265048 -0.592,-0.592 0,-0.326953 0.265047,-0.592 0.592,-0.592 0.326952,0 0.592,0.265047 0.592,0.592 z" /></g><g
       id="g244"><circle
         cx="49.780998"
         cy="34.084"
         r="0.72899997"
         id="circle246"
         sodipodi:cx="49.780998"
         sodipodi:cy="34.084"
         sodipodi:rx="0.72899997"
         sodipodi:ry="0.72899997"
         d="m 50.509998,34.084 c 0,0.402615 -0.326384,0.729 -0.729,0.729 -0.402615,0 -0.729,-0.326385 -0.729,-0.729 0,-0.402616 0.326385,-0.729 0.729,-0.729 0.402616,0 0.729,0.326384 0.729,0.729 z" /></g><g
       id="g248"><circle
         cx="52.68"
         cy="34.912998"
         r="0.86500001"
         id="circle250"
         sodipodi:cx="52.68"
         sodipodi:cy="34.912998"
         sodipodi:rx="0.86500001"
         sodipodi:ry="0.86500001"
         d="m 53.545,34.912998 c 0,0.477727 -0.387273,0.865 -0.865,0.865 -0.477726,0 -0.865,-0.387273 -0.865,-0.865 0,-0.477726 0.387274,-0.865 0.865,-0.865 0.477727,0 0.865,0.387274 0.865,0.865 z" /></g><g
       id="g252"><circle
         cx="54.278999"
         cy="37.536999"
         r="1.062"
         id="circle254"
         sodipodi:cx="54.278999"
         sodipodi:cy="37.536999"
         sodipodi:rx="1.062"
         sodipodi:ry="1.062"
         d="m 55.340999,37.536999 c 0,0.586526 -0.475473,1.062 -1.062,1.062 -0.586526,0 -1.062,-0.475474 -1.062,-1.062 0,-0.586527 0.475474,-1.062 1.062,-1.062 0.586527,0 1.062,0.475473 1.062,1.062 z" /></g><g
       id="g256"><path
         d="m 30.5,26.5 v 44 h 40 v -44 h -40 z m 12,39.582 c 0,0.23 -0.188,0.418 -0.419,0.418 H 41.919 C 41.688,66.5 41.5,66.312 41.5,66.082 V 27.918 c 0,-0.231 0.188,-0.418 0.419,-0.418 h 0.162 c 0.231,0 0.419,0.187 0.419,0.418 v 38.164 z m 14,1.418 h -12 v -7 h 12 v 7 z M 50.486,44.549 c -3.28,0 -5.942,-2.66 -5.942,-5.941 0,-3.284 2.662,-5.946 5.942,-5.946 3.284,0 5.946,2.662 5.946,5.946 0,3.281 -2.661,5.941 -5.946,5.941 z M 60.5,66.297 c 0,0.112 -0.023,0.203 -0.053,0.203 h -0.896 c -0.028,0 -0.053,-0.091 -0.053,-0.203 V 27.703 c 0,-0.112 0.022,-0.203 0.053,-0.203 h 0.896 c 0.029,0 0.053,0.091 0.053,0.203 v 38.594 z"
         id="path258"
         inkscape:connector-curvature="0" /></g><g
       id="g260"><path
         d="m 47.744,66.805 c 0,0 1.275,-0.875 0.755,-2.59 -0.516,-1.713 -1.032,-3.105 -0.755,-3.902 0,0 -1.514,2.512 -0.796,3.785 0.717,1.273 0.995,1.631 0.796,2.707 z"
         id="path262"
         inkscape:connector-curvature="0" /></g><g
       id="g264"><path
         d="m 50.547,61.281 c 0,0 -1.276,0.877 -0.757,2.59 0.516,1.713 1.035,3.105 0.757,3.904 0,0 1.512,-2.51 0.795,-3.784 -0.718,-1.272 -0.995,-1.634 -0.795,-2.71 z"
         id="path266"
         inkscape:connector-curvature="0" /></g><g
       id="g268"><path
         d="m 53.152,60.632 c 0,0 -1.276,0.875 -0.76,2.588 0.516,1.714 1.035,3.106 0.76,3.905 0,0 1.51,-2.512 0.793,-3.785 -0.717,-1.273 -0.993,-1.633 -0.793,-2.708 z"
         id="path270"
         inkscape:connector-curvature="0" /></g></g></svg>