<?xml version="1.0" encoding="utf-8"?><!DOCTYPE svg PUBLIC "-//W3C//DTD SVG 1.1//EN" "http://www.w3.org/Graphics/SVG/1.1/DTD/svg11.dtd"><svg version="1.1" xmlns="http://www.w3.org/2000/svg" xmlns:xlink="http://www.w3.org/1999/xlink" x="0px" y="0px" viewBox="0 0 75.119 100" enable-background="new 0 0 75.119 100" xml:space="preserve"><path fill="#010101" d="M38.299,43.756c-0.248,0-0.503-0.007-0.754-0.022c-3.321,0.184-6.232-0.856-8.429-2.917
	c-0.18-0.171-0.352-0.343-0.523-0.523c-0.183,0.198-0.377,0.395-0.578,0.587c-2.257,2.102-5.229,3.083-8.68,2.839
	c-2.068-0.146-3.627-1.946-3.477-4.013c0.141-2.068,1.893-3.602,4.011-3.48c1.709,0.112,2.555-0.413,3.008-0.831
	c1.551-1.427,1.935-4.51,1.946-5.483c0.011-2.065,1.687-3.736,3.756-3.736c2.047,0,3.712,1.64,3.756,3.675l0,0
	c0,0.009,0,0.017,0,0.024l0,0v0.003c0,0,0,0,0,0.004l0,0v0.003l0,0v0.004v0.003l0,0l0,0c0,0.004,0,0.011,0,0.011
	c0,0.003,0,0.007,0,0.011c0.011,0.936,0.391,3.989,1.942,5.425c0.458,0.424,1.315,0.979,3.05,0.868c0.165-0.011,0.33-0.011,0.502,0
	c1.717,0.112,2.555-0.415,3.01-0.831c1.552-1.427,1.937-4.51,1.943-5.484c0.015-2.065,1.688-3.737,3.757-3.737
	c2.054,0,3.723,1.648,3.756,3.695l0,0c0,0.003,0,0.003,0,0.009c0,0,0,0,0,0.003l0,0l0,0c0,0,0,0,0,0.004c0,0.003,0,0.011,0,0.015
	c0,0.003,0,0.007,0,0.011l0,0l0,0c0,0.004,0,0.007,0,0.011c0.015,0.935,0.392,3.989,1.943,5.423
	c0.455,0.426,1.317,0.981,3.052,0.869c2.039-0.154,3.848,1.442,3.983,3.514c0.125,2.07-1.445,3.855-3.514,3.987
	c-3.411,0.224-6.43-0.791-8.682-2.909c-0.18-0.168-0.356-0.341-0.524-0.521c-0.184,0.198-0.378,0.394-0.576,0.585
	C43.938,42.773,41.301,43.756,38.299,43.756z"></path><path fill="#010101" d="M55.511,70.536v16.318c0,4.134-3.379,7.512-7.513,7.512h-1.805c0,3.11-2.523,5.634-5.634,5.634h-6
	c-3.11,0-5.634-2.523-5.634-5.634h-1.807c-4.132,0-7.512-3.378-7.512-7.512V70.536C7.939,64.157,0,51.769,0,37.559
	C0,16.848,16.849,0,37.56,0c20.709,0,37.56,16.848,37.56,37.559C75.119,51.769,67.182,64.157,55.511,70.536z M67.607,37.556
	c0-16.568-13.479-30.048-30.048-30.048c-16.568,0-30.047,13.479-30.047,30.048c0,16.566,13.479,30.049,30.047,30.049
	C54.128,67.605,67.607,54.128,67.607,37.556z"></path></svg>