<?xml version="1.0" encoding="UTF-8" standalone="no"?>
<svg
   xmlns:dc="http://purl.org/dc/elements/1.1/"
   xmlns:cc="http://creativecommons.org/ns#"
   xmlns:rdf="http://www.w3.org/1999/02/22-rdf-syntax-ns#"
   xmlns:svg="http://www.w3.org/2000/svg"
   xmlns="http://www.w3.org/2000/svg"
   xmlns:sodipodi="http://sodipodi.sourceforge.net/DTD/sodipodi-0.dtd"
   xmlns:inkscape="http://www.inkscape.org/namespaces/inkscape"
   version="1.1"
   x="0px"
   y="0px"
   viewBox="0 0 85.860996 54.563"
   enable-background="new 0 0 100 100"
   xml:space="preserve"
   id="svg2"
   inkscape:version="0.48.4 r9939"
   width="100%"
   height="100%"
   sodipodi:docname="TIP_5.svg"><metadata
     id="metadata26"><rdf:RDF><cc:Work
         rdf:about=""><dc:format>image/svg+xml</dc:format><dc:type
           rdf:resource="http://purl.org/dc/dcmitype/StillImage" /></cc:Work></rdf:RDF></metadata><defs
     id="defs24" /><sodipodi:namedview
     pagecolor="#ffffff"
     bordercolor="#666666"
     borderopacity="1"
     objecttolerance="10"
     gridtolerance="10"
     guidetolerance="10"
     inkscape:pageopacity="0"
     inkscape:pageshadow="2"
     inkscape:window-width="640"
     inkscape:window-height="480"
     id="namedview22"
     showgrid="false"
     fit-margin-top="0"
     fit-margin-left="0"
     fit-margin-right="0"
     fit-margin-bottom="0"
     inkscape:zoom="2.36"
     inkscape:cx="42.99"
     inkscape:cy="28.783"
     inkscape:window-x="59"
     inkscape:window-y="34"
     inkscape:window-maximized="0"
     inkscape:current-layer="svg2" /><path
     d="m 20.38,49.67 c 0,2.702 -2.19,4.893 -4.891,4.893 l 0,0 c -2.702,0 -4.892,-2.19 -4.892,-4.893 V 4.892 C 10.597,2.19 12.787,0 15.489,0 l 0,0 C 18.19,0 20.38,2.19 20.38,4.892 V 49.67 z"
     id="path4"
     inkscape:connector-curvature="0" /><path
     d="m 34.113,49.67 c 0,2.702 -2.19,4.893 -4.892,4.893 l 0,0 c -2.702,0 -4.892,-2.19 -4.892,-4.893 V 4.892 C 24.329,2.19 26.518,0 29.221,0 l 0,0 c 2.702,0 4.892,2.19 4.892,4.892 V 49.67 z"
     id="path6"
     inkscape:connector-curvature="0" /><path
     d="m 47.892,49.67 c 0,2.702 -2.191,4.893 -4.892,4.893 l 0,0 c -2.702,0 -4.892,-2.19 -4.892,-4.893 V 4.892 C 38.108,2.19 40.298,0 43,0 l 0,0 c 2.7,0 4.892,2.19 4.892,4.892 V 49.67 z"
     id="path8"
     inkscape:connector-curvature="0" /><path
     d="m 61.601,49.67 c 0,2.702 -2.189,4.893 -4.891,4.893 l 0,0 c -2.703,0 -4.893,-2.19 -4.893,-4.893 V 4.892 C 51.817,2.19 54.006,0 56.71,0 l 0,0 c 2.701,0 4.891,2.19 4.891,4.892 V 49.67 z"
     id="path10"
     inkscape:connector-curvature="0" /><path
     d="m 75.383,49.67 c 0,2.702 -2.189,4.893 -4.891,4.893 l 0,0 c -2.703,0 -4.892,-2.19 -4.892,-4.893 V 4.892 C 65.6,2.19 67.788,0 70.492,0 l 0,0 c 2.701,0 4.891,2.19 4.891,4.892 V 49.67 z"
     id="path12"
     inkscape:connector-curvature="0" /><path
     d="m 0,44.337 h 2.405 c 0.068,0.536 0.527,0.95 1.082,0.95 h 1.584 c 0.555,0 1.013,-0.414 1.082,-0.95 h 3.216 v 2.078 c 0,0.322 0.26,0.583 0.583,0.585 h 0.951 c 0.037,0 0.073,-0.016 0.099,-0.041 0.026,-0.026 0.041,-0.062 0.041,-0.099 v -7.607 c 0,-0.036 -0.015,-0.073 -0.041,-0.099 -0.026,-0.026 -0.062,-0.042 -0.099,-0.042 H 9.952 c -0.323,0 -0.583,0.264 -0.583,0.585 v 2.078 H 6.153 C 6.091,41.284 5.701,40.896 5.212,40.833 v -2.264 h 2.396 c 0.498,0 0.9,-0.405 0.9,-0.901 0,-0.497 -0.403,-0.9 -0.9,-0.9 H 0.951 c -0.497,0 -0.901,0.403 -0.901,0.9 0,0.498 0.404,0.901 0.901,0.901 h 2.396 v 2.265 c -0.49,0.062 -0.879,0.452 -0.941,0.941 H 0 v 2.562 z"
     id="path14"
     inkscape:connector-curvature="0" /><rect
     x="7.6059999"
     y="8.7119989"
     width="70.327003"
     height="5.0209999"
     id="rect16" /><rect
     x="10.007"
     y="40.313995"
     width="75.853996"
     height="5.0209999"
     id="rect18" /><rect
     x="77.047997"
     y="38.761997"
     width="7.1220002"
     height="8.4180002"
     id="rect20" /></svg>