<?xml version="1.0" encoding="UTF-8" standalone="no"?>
<svg
   xmlns:dc="http://purl.org/dc/elements/1.1/"
   xmlns:cc="http://creativecommons.org/ns#"
   xmlns:rdf="http://www.w3.org/1999/02/22-rdf-syntax-ns#"
   xmlns:svg="http://www.w3.org/2000/svg"
   xmlns="http://www.w3.org/2000/svg"
   xmlns:sodipodi="http://sodipodi.sourceforge.net/DTD/sodipodi-0.dtd"
   xmlns:inkscape="http://www.inkscape.org/namespaces/inkscape"
   version="1.1"
   x="0px"
   y="0px"
   viewBox="0 0 72.056 89.814"
   enable-background="new 0 0 100 100"
   xml:space="preserve"
   id="svg2"
   inkscape:version="0.48.4 r9939"
   width="100%"
   height="100%"
   sodipodi:docname="TIP_2.svg"><metadata
     id="metadata12"><rdf:RDF><cc:Work
         rdf:about=""><dc:format>image/svg+xml</dc:format><dc:type
           rdf:resource="http://purl.org/dc/dcmitype/StillImage" /></cc:Work></rdf:RDF></metadata><defs
     id="defs10" /><sodipodi:namedview
     pagecolor="#ffffff"
     bordercolor="#666666"
     borderopacity="1"
     objecttolerance="10"
     gridtolerance="10"
     guidetolerance="10"
     inkscape:pageopacity="0"
     inkscape:pageshadow="2"
     inkscape:window-width="640"
     inkscape:window-height="480"
     id="namedview8"
     showgrid="false"
     fit-margin-top="0"
     fit-margin-left="0"
     fit-margin-right="0"
     fit-margin-bottom="0"
     inkscape:zoom="2.36"
     inkscape:cx="36.028"
     inkscape:cy="44.966"
     inkscape:window-x="112"
     inkscape:window-y="62"
     inkscape:window-maximized="0"
     inkscape:current-layer="svg2" /><g
     id="g4"
     transform="translate(-13.972,-5.152)"><path
       d="M 86.028,41.179 C 86.028,21.313 69.866,5.152 50,5.152 c -19.867,0 -36.028,16.161 -36.028,36.027 0,17.97 13.224,32.906 30.452,35.593 v 10.57 c -10.727,0.521 -18.715,2.502 -18.715,4.865 v 2.759 h 48.583 v -2.759 c 0,-2.363 -7.987,-4.345 -18.718,-4.865 V 76.773 C 72.803,74.087 86.028,59.149 86.028,41.179 z m -68.784,0 C 17.244,23.117 31.939,8.424 50,8.424 68.063,8.424 82.756,23.117 82.756,41.179 82.756,59.24 68.063,73.934 50,73.934 31.939,73.935 17.244,59.24 17.244,41.179 z M 41.783,15.35 c 4.615,-7.284 11.386,-6.463 15.386,-4.617 4.001,1.847 8.821,9.028 4.72,13.132 -3.362,3.361 -7.201,4.043 -8.48,8.015 -1.065,-0.393 -2.211,-0.616 -3.411,-0.616 -1.662,0 -3.225,0.415 -4.603,1.14 C 45.107,32.123 44.758,31.835 44.321,31.546 40.243,28.862 38.708,20.201 41.783,15.35 z M 24.169,49.396 c -7.284,-4.617 -6.462,-11.388 -4.617,-15.388 1.847,-4 9.028,-8.823 13.133,-4.719 3.362,3.363 4.043,7.202 8.015,8.482 -0.392,1.064 -0.617,2.21 -0.617,3.409 0,1.661 0.416,3.226 1.141,4.602 -0.28,0.288 -0.569,0.637 -0.859,1.075 -2.683,4.076 -11.345,5.613 -16.196,2.539 z m 34.047,17.611 c -4.617,7.285 -11.387,6.463 -15.388,4.617 -4,-1.848 -8.823,-9.027 -4.72,-13.131 3.363,-3.362 7.202,-4.044 8.482,-8.015 1.064,0.393 2.21,0.614 3.409,0.614 1.663,0 3.227,-0.413 4.602,-1.138 0.289,0.281 0.64,0.57 1.076,0.858 4.078,2.685 5.612,11.345 2.539,16.195 z M 75.827,32.962 c 7.284,4.617 6.464,11.387 4.617,15.389 -1.847,3.999 -9.027,8.82 -13.133,4.719 -3.361,-3.364 -4.041,-7.202 -8.013,-8.481 0.392,-1.065 0.616,-2.211 0.616,-3.41 0,-1.662 -0.416,-3.225 -1.142,-4.603 0.282,-0.288 0.569,-0.637 0.858,-1.075 2.684,-4.077 11.348,-5.613 16.197,-2.539 z m -18.865,8.216 c 0,3.846 -3.116,6.963 -6.964,6.963 -3.843,0 -6.961,-3.117 -6.961,-6.963 0,-3.845 3.118,-6.961 6.961,-6.961 3.848,-10e-4 6.964,3.116 6.964,6.961 z"
       id="path6"
       inkscape:connector-curvature="0" /></g></svg>